<mxfile host="65bd71144e">
    <diagram id="dLi9v361yu8v_5P07Nyz" name="Page-2">
        <mxGraphModel dx="846" dy="779" grid="0" gridSize="10" guides="1" tooltips="1" connect="1" arrows="1" fold="1" page="1" pageScale="1" pageWidth="1169" pageHeight="827" background="#ffffff" math="0" shadow="0">
            <root>
                <mxCell id="0"/>
                <mxCell id="1" parent="0"/>
                <mxCell id="3YBmxyfWrJCrop1OtzRI-1" value="VPC" style="points=[[0,0],[0.25,0],[0.5,0],[0.75,0],[1,0],[1,0.25],[1,0.5],[1,0.75],[1,1],[0.75,1],[0.5,1],[0.25,1],[0,1],[0,0.75],[0,0.5],[0,0.25]];outlineConnect=0;gradientColor=none;html=1;whiteSpace=wrap;fontSize=12;fontStyle=0;container=0;pointerEvents=0;collapsible=0;recursiveResize=0;shape=mxgraph.aws4.group;grIcon=mxgraph.aws4.group_vpc;strokeColor=#248814;fillColor=none;verticalAlign=top;align=left;spacingLeft=30;fontColor=#AAB7B8;dashed=0;strokeWidth=3;" vertex="1" parent="1">
                    <mxGeometry x="273" y="191" width="473" height="400" as="geometry"/>
                </mxCell>
                <mxCell id="wZymyNCZh6rcnGvRi5B4-2" style="edgeStyle=orthogonalEdgeStyle;html=1;strokeColor=#000000;strokeWidth=1;fontSize=13;fontColor=#000000;" edge="1" parent="1" source="3YBmxyfWrJCrop1OtzRI-4" target="wZymyNCZh6rcnGvRi5B4-1">
                    <mxGeometry relative="1" as="geometry"/>
                </mxCell>
                <mxCell id="3YBmxyfWrJCrop1OtzRI-4" value="EFS" style="sketch=0;points=[[0,0,0],[0.25,0,0],[0.5,0,0],[0.75,0,0],[1,0,0],[0,1,0],[0.25,1,0],[0.5,1,0],[0.75,1,0],[1,1,0],[0,0.25,0],[0,0.5,0],[0,0.75,0],[1,0.25,0],[1,0.5,0],[1,0.75,0]];outlineConnect=0;fontColor=#232F3E;gradientColor=#60A337;gradientDirection=north;fillColor=#277116;strokeColor=#ffffff;dashed=0;verticalLabelPosition=bottom;verticalAlign=top;align=center;html=1;fontSize=12;fontStyle=0;aspect=fixed;shape=mxgraph.aws4.resourceIcon;resIcon=mxgraph.aws4.elastic_file_system;strokeWidth=3;" vertex="1" parent="1">
                    <mxGeometry x="783" y="360" width="78" height="78" as="geometry"/>
                </mxCell>
                <mxCell id="3YBmxyfWrJCrop1OtzRI-17" value="Availability Zone" style="fillColor=none;strokeColor=#147EBA;dashed=1;verticalAlign=top;fontStyle=0;fontColor=#147EBA;strokeWidth=3;fontSize=13;" vertex="1" parent="1">
                    <mxGeometry x="167" y="212" width="475" height="184" as="geometry"/>
                </mxCell>
                <mxCell id="3YBmxyfWrJCrop1OtzRI-2" value="Private subnet" style="points=[[0,0],[0.25,0],[0.5,0],[0.75,0],[1,0],[1,0.25],[1,0.5],[1,0.75],[1,1],[0.75,1],[0.5,1],[0.25,1],[0,1],[0,0.75],[0,0.5],[0,0.25]];outlineConnect=0;gradientColor=none;html=1;whiteSpace=wrap;fontSize=12;fontStyle=0;container=1;pointerEvents=0;collapsible=0;recursiveResize=0;shape=mxgraph.aws4.group;grIcon=mxgraph.aws4.group_security_group;grStroke=0;strokeColor=#147EBA;fillColor=#E6F2F8;verticalAlign=top;align=left;spacingLeft=30;fontColor=#147EBA;dashed=0;strokeWidth=3;" vertex="1" parent="1">
                    <mxGeometry x="287" y="244" width="320" height="145" as="geometry"/>
                </mxCell>
                <mxCell id="3YBmxyfWrJCrop1OtzRI-6" value="Security group" style="fillColor=none;strokeColor=#DD3522;verticalAlign=top;fontStyle=0;fontColor=#DD3522;strokeWidth=3;fontSize=17;" vertex="1" parent="3YBmxyfWrJCrop1OtzRI-2">
                    <mxGeometry x="176" y="35" width="124" height="93" as="geometry"/>
                </mxCell>
                <mxCell id="3YBmxyfWrJCrop1OtzRI-8" value="マウントターゲット" style="sketch=0;outlineConnect=0;fontColor=#232F3E;gradientColor=none;fillColor=#4D27AA;strokeColor=none;dashed=0;verticalLabelPosition=bottom;verticalAlign=top;align=center;html=1;fontSize=12;fontStyle=0;aspect=fixed;pointerEvents=1;shape=mxgraph.aws4.elastic_network_interface;strokeWidth=3;" vertex="1" parent="3YBmxyfWrJCrop1OtzRI-2">
                    <mxGeometry x="218" y="65" width="35" height="35" as="geometry"/>
                </mxCell>
                <mxCell id="3YBmxyfWrJCrop1OtzRI-12" style="edgeStyle=orthogonalEdgeStyle;html=1;strokeColor=#000000;strokeWidth=1;fontSize=17;fontColor=#000000;" edge="1" parent="3YBmxyfWrJCrop1OtzRI-2" source="3YBmxyfWrJCrop1OtzRI-11" target="3YBmxyfWrJCrop1OtzRI-8">
                    <mxGeometry relative="1" as="geometry"/>
                </mxCell>
                <mxCell id="3YBmxyfWrJCrop1OtzRI-11" value="EC2" style="sketch=0;points=[[0,0,0],[0.25,0,0],[0.5,0,0],[0.75,0,0],[1,0,0],[0,1,0],[0.25,1,0],[0.5,1,0],[0.75,1,0],[1,1,0],[0,0.25,0],[0,0.5,0],[0,0.75,0],[1,0.25,0],[1,0.5,0],[1,0.75,0]];outlineConnect=0;fontColor=#232F3E;gradientColor=#F78E04;gradientDirection=north;fillColor=#D05C17;strokeColor=#ffffff;dashed=0;verticalLabelPosition=bottom;verticalAlign=top;align=center;html=1;fontSize=12;fontStyle=0;aspect=fixed;shape=mxgraph.aws4.resourceIcon;resIcon=mxgraph.aws4.compute;strokeWidth=3;" vertex="1" parent="3YBmxyfWrJCrop1OtzRI-2">
                    <mxGeometry x="32" y="57.5" width="50" height="50" as="geometry"/>
                </mxCell>
                <mxCell id="3YBmxyfWrJCrop1OtzRI-16" value="2049ポート" style="text;html=1;align=center;verticalAlign=middle;resizable=0;points=[];autosize=1;strokeColor=none;fillColor=none;fontSize=13;fontColor=#000000;" vertex="1" parent="3YBmxyfWrJCrop1OtzRI-2">
                    <mxGeometry x="92" y="54" width="86" height="28" as="geometry"/>
                </mxCell>
                <mxCell id="3YBmxyfWrJCrop1OtzRI-3" value="Private subnet" style="points=[[0,0],[0.25,0],[0.5,0],[0.75,0],[1,0],[1,0.25],[1,0.5],[1,0.75],[1,1],[0.75,1],[0.5,1],[0.25,1],[0,1],[0,0.75],[0,0.5],[0,0.25]];outlineConnect=0;gradientColor=none;html=1;whiteSpace=wrap;fontSize=12;fontStyle=0;container=1;pointerEvents=0;collapsible=0;recursiveResize=0;shape=mxgraph.aws4.group;grIcon=mxgraph.aws4.group_security_group;grStroke=0;strokeColor=#147EBA;fillColor=#E6F2F8;verticalAlign=top;align=left;spacingLeft=30;fontColor=#147EBA;dashed=0;strokeWidth=3;" vertex="1" parent="1">
                    <mxGeometry x="288" y="430" width="319" height="149" as="geometry"/>
                </mxCell>
                <mxCell id="3YBmxyfWrJCrop1OtzRI-18" value="Availability Zone" style="fillColor=none;strokeColor=#147EBA;dashed=1;verticalAlign=top;fontStyle=0;fontColor=#147EBA;strokeWidth=3;fontSize=13;" vertex="1" parent="1">
                    <mxGeometry x="170" y="407" width="473" height="177" as="geometry"/>
                </mxCell>
                <mxCell id="wZymyNCZh6rcnGvRi5B4-1" value="Backup" style="sketch=0;points=[[0,0,0],[0.25,0,0],[0.5,0,0],[0.75,0,0],[1,0,0],[0,1,0],[0.25,1,0],[0.5,1,0],[0.75,1,0],[1,1,0],[0,0.25,0],[0,0.5,0],[0,0.75,0],[1,0.25,0],[1,0.5,0],[1,0.75,0]];outlineConnect=0;fontColor=#232F3E;gradientColor=#60A337;gradientDirection=north;fillColor=#277116;strokeColor=#ffffff;dashed=0;verticalLabelPosition=bottom;verticalAlign=top;align=center;html=1;fontSize=12;fontStyle=0;aspect=fixed;shape=mxgraph.aws4.resourceIcon;resIcon=mxgraph.aws4.backup;strokeWidth=3;" vertex="1" parent="1">
                    <mxGeometry x="958" y="360" width="78" height="78" as="geometry"/>
                </mxCell>
                <mxCell id="wZymyNCZh6rcnGvRi5B4-4" style="edgeStyle=orthogonalEdgeStyle;html=1;strokeColor=#000000;strokeWidth=1;fontSize=13;fontColor=#000000;" edge="1" parent="1" source="wZymyNCZh6rcnGvRi5B4-3" target="3YBmxyfWrJCrop1OtzRI-4">
                    <mxGeometry relative="1" as="geometry"/>
                </mxCell>
                <mxCell id="wZymyNCZh6rcnGvRi5B4-3" value="KMS" style="sketch=0;points=[[0,0,0],[0.25,0,0],[0.5,0,0],[0.75,0,0],[1,0,0],[0,1,0],[0.25,1,0],[0.5,1,0],[0.75,1,0],[1,1,0],[0,0.25,0],[0,0.5,0],[0,0.75,0],[1,0.25,0],[1,0.5,0],[1,0.75,0]];outlineConnect=0;fontColor=#232F3E;gradientColor=#F54749;gradientDirection=north;fillColor=#C7131F;strokeColor=#ffffff;dashed=0;verticalLabelPosition=bottom;verticalAlign=top;align=center;html=1;fontSize=12;fontStyle=0;aspect=fixed;shape=mxgraph.aws4.resourceIcon;resIcon=mxgraph.aws4.key_management_service;strokeWidth=3;" vertex="1" parent="1">
                    <mxGeometry x="783" y="556" width="78" height="78" as="geometry"/>
                </mxCell>
                <mxCell id="wZymyNCZh6rcnGvRi5B4-8" style="edgeStyle=orthogonalEdgeStyle;html=1;strokeColor=#000000;strokeWidth=1;fontSize=13;fontColor=#000000;" edge="1" parent="1" source="wZymyNCZh6rcnGvRi5B4-6" target="3YBmxyfWrJCrop1OtzRI-4">
                    <mxGeometry relative="1" as="geometry"/>
                </mxCell>
                <mxCell id="wZymyNCZh6rcnGvRi5B4-9" style="html=1;strokeColor=#000000;strokeWidth=1;fontSize=13;fontColor=#000000;dashed=1;" edge="1" parent="1" source="wZymyNCZh6rcnGvRi5B4-6" target="3YBmxyfWrJCrop1OtzRI-8">
                    <mxGeometry relative="1" as="geometry"/>
                </mxCell>
                <mxCell id="wZymyNCZh6rcnGvRi5B4-10" style="html=1;dashed=1;strokeColor=#000000;strokeWidth=1;fontSize=13;fontColor=#000000;" edge="1" parent="1" source="wZymyNCZh6rcnGvRi5B4-6" target="wZymyNCZh6rcnGvRi5B4-12">
                    <mxGeometry relative="1" as="geometry"/>
                </mxCell>
                <mxCell id="wZymyNCZh6rcnGvRi5B4-6" value="file-system-id.efs.aws-region.amazonaws.com" style="text;html=1;align=center;verticalAlign=middle;resizable=0;points=[];autosize=1;strokeColor=none;fillColor=none;fontSize=13;fontColor=#000000;" vertex="1" parent="1">
                    <mxGeometry x="680" y="147" width="284" height="28" as="geometry"/>
                </mxCell>
                <mxCell id="wZymyNCZh6rcnGvRi5B4-7" value="" style="sketch=0;points=[[0,0,0],[0.25,0,0],[0.5,0,0],[0.75,0,0],[1,0,0],[0,1,0],[0.25,1,0],[0.5,1,0],[0.75,1,0],[1,1,0],[0,0.25,0],[0,0.5,0],[0,0.75,0],[1,0.25,0],[1,0.5,0],[1,0.75,0]];outlineConnect=0;fontColor=#232F3E;gradientColor=#945DF2;gradientDirection=north;fillColor=#5A30B5;strokeColor=#ffffff;dashed=0;verticalLabelPosition=bottom;verticalAlign=top;align=center;html=1;fontSize=12;fontStyle=0;aspect=fixed;shape=mxgraph.aws4.resourceIcon;resIcon=mxgraph.aws4.route_53;strokeWidth=3;" vertex="1" parent="1">
                    <mxGeometry x="783" y="60" width="78" height="78" as="geometry"/>
                </mxCell>
                <mxCell id="wZymyNCZh6rcnGvRi5B4-11" value="Security group" style="fillColor=none;strokeColor=#DD3522;verticalAlign=top;fontStyle=0;fontColor=#DD3522;strokeWidth=3;fontSize=17;" vertex="1" parent="1">
                    <mxGeometry x="465" y="465" width="124" height="96" as="geometry"/>
                </mxCell>
                <mxCell id="wZymyNCZh6rcnGvRi5B4-19" style="edgeStyle=orthogonalEdgeStyle;html=1;entryX=0;entryY=0.5;entryDx=0;entryDy=0;entryPerimeter=0;strokeColor=#000000;strokeWidth=1;fontSize=13;fontColor=#000000;" edge="1" parent="1" source="wZymyNCZh6rcnGvRi5B4-12" target="3YBmxyfWrJCrop1OtzRI-4">
                    <mxGeometry relative="1" as="geometry"/>
                </mxCell>
                <mxCell id="wZymyNCZh6rcnGvRi5B4-12" value="マウントターゲット" style="sketch=0;outlineConnect=0;fontColor=#232F3E;gradientColor=none;fillColor=#4D27AA;strokeColor=none;dashed=0;verticalLabelPosition=bottom;verticalAlign=top;align=center;html=1;fontSize=12;fontStyle=0;aspect=fixed;pointerEvents=1;shape=mxgraph.aws4.elastic_network_interface;strokeWidth=3;" vertex="1" parent="1">
                    <mxGeometry x="507.5" y="502" width="35" height="35" as="geometry"/>
                </mxCell>
                <mxCell id="wZymyNCZh6rcnGvRi5B4-13" style="edgeStyle=orthogonalEdgeStyle;html=1;strokeColor=#000000;strokeWidth=1;fontSize=17;fontColor=#000000;" edge="1" parent="1" source="wZymyNCZh6rcnGvRi5B4-14" target="wZymyNCZh6rcnGvRi5B4-12">
                    <mxGeometry relative="1" as="geometry">
                        <mxPoint x="509.5003977001568" y="519.5" as="targetPoint"/>
                    </mxGeometry>
                </mxCell>
                <mxCell id="wZymyNCZh6rcnGvRi5B4-14" value="EC2" style="sketch=0;points=[[0,0,0],[0.25,0,0],[0.5,0,0],[0.75,0,0],[1,0,0],[0,1,0],[0.25,1,0],[0.5,1,0],[0.75,1,0],[1,1,0],[0,0.25,0],[0,0.5,0],[0,0.75,0],[1,0.25,0],[1,0.5,0],[1,0.75,0]];outlineConnect=0;fontColor=#232F3E;gradientColor=#F78E04;gradientDirection=north;fillColor=#D05C17;strokeColor=#ffffff;dashed=0;verticalLabelPosition=bottom;verticalAlign=top;align=center;html=1;fontSize=12;fontStyle=0;aspect=fixed;shape=mxgraph.aws4.resourceIcon;resIcon=mxgraph.aws4.compute;strokeWidth=3;" vertex="1" parent="1">
                    <mxGeometry x="319" y="494" width="50" height="50" as="geometry"/>
                </mxCell>
                <mxCell id="wZymyNCZh6rcnGvRi5B4-15" value="2049ポート" style="text;html=1;align=center;verticalAlign=middle;resizable=0;points=[];autosize=1;strokeColor=none;fillColor=none;fontSize=13;fontColor=#000000;" vertex="1" parent="1">
                    <mxGeometry x="379" y="490.5" width="86" height="28" as="geometry"/>
                </mxCell>
                <mxCell id="wZymyNCZh6rcnGvRi5B4-17" style="html=1;strokeColor=#000000;strokeWidth=1;fontSize=13;fontColor=#000000;" edge="1" parent="1" source="wZymyNCZh6rcnGvRi5B4-16" target="3YBmxyfWrJCrop1OtzRI-8">
                    <mxGeometry relative="1" as="geometry"/>
                </mxCell>
                <mxCell id="wZymyNCZh6rcnGvRi5B4-16" value="availability-zone.file-system-id.efs.aws-region.amazonaws.com" style="text;html=1;align=center;verticalAlign=middle;resizable=0;points=[];autosize=1;strokeColor=none;fillColor=none;fontSize=13;fontColor=#000000;" vertex="1" parent="1">
                    <mxGeometry x="386" y="98" width="380" height="28" as="geometry"/>
                </mxCell>
                <mxCell id="wZymyNCZh6rcnGvRi5B4-18" style="edgeStyle=orthogonalEdgeStyle;html=1;entryX=0;entryY=0.5;entryDx=0;entryDy=0;entryPerimeter=0;strokeColor=#000000;strokeWidth=1;fontSize=13;fontColor=#000000;" edge="1" parent="1" source="3YBmxyfWrJCrop1OtzRI-8" target="3YBmxyfWrJCrop1OtzRI-4">
                    <mxGeometry relative="1" as="geometry"/>
                </mxCell>
                <mxCell id="wZymyNCZh6rcnGvRi5B4-20" value="暗号化" style="text;html=1;align=center;verticalAlign=middle;resizable=0;points=[];autosize=1;strokeColor=none;fillColor=none;fontSize=13;fontColor=#000000;" vertex="1" parent="1">
                    <mxGeometry x="830" y="490.5" width="57" height="28" as="geometry"/>
                </mxCell>
                <mxCell id="wZymyNCZh6rcnGvRi5B4-21" value="VPC" style="points=[[0,0],[0.25,0],[0.5,0],[0.75,0],[1,0],[1,0.25],[1,0.5],[1,0.75],[1,1],[0.75,1],[0.5,1],[0.25,1],[0,1],[0,0.75],[0,0.5],[0,0.25]];outlineConnect=0;gradientColor=none;html=1;whiteSpace=wrap;fontSize=12;fontStyle=0;container=0;pointerEvents=0;collapsible=0;recursiveResize=0;shape=mxgraph.aws4.group;grIcon=mxgraph.aws4.group_vpc;strokeColor=#248814;fillColor=none;verticalAlign=top;align=left;spacingLeft=30;fontColor=#AAB7B8;dashed=0;strokeWidth=3;" vertex="1" parent="1">
                    <mxGeometry x="273" y="707" width="473" height="87" as="geometry"/>
                </mxCell>
                <mxCell id="wZymyNCZh6rcnGvRi5B4-24" style="edgeStyle=none;html=1;strokeColor=#000000;strokeWidth=1;fontSize=13;fontColor=#000000;" edge="1" parent="1" source="wZymyNCZh6rcnGvRi5B4-22">
                    <mxGeometry relative="1" as="geometry">
                        <mxPoint x="413" y="600" as="targetPoint"/>
                    </mxGeometry>
                </mxCell>
                <mxCell id="wZymyNCZh6rcnGvRi5B4-28" style="edgeStyle=none;html=1;strokeColor=#000000;strokeWidth=1;fontSize=13;fontColor=#000000;" edge="1" parent="1" source="wZymyNCZh6rcnGvRi5B4-22">
                    <mxGeometry relative="1" as="geometry">
                        <mxPoint x="413" y="697" as="targetPoint"/>
                    </mxGeometry>
                </mxCell>
                <mxCell id="wZymyNCZh6rcnGvRi5B4-22" value="Transit Gateway" style="sketch=0;points=[[0,0,0],[0.25,0,0],[0.5,0,0],[0.75,0,0],[1,0,0],[0,1,0],[0.25,1,0],[0.5,1,0],[0.75,1,0],[1,1,0],[0,0.25,0],[0,0.5,0],[0,0.75,0],[1,0.25,0],[1,0.5,0],[1,0.75,0]];outlineConnect=0;fontColor=#232F3E;gradientColor=#945DF2;gradientDirection=north;fillColor=#5A30B5;strokeColor=#ffffff;dashed=0;verticalLabelPosition=bottom;verticalAlign=top;align=center;html=1;fontSize=12;fontStyle=0;aspect=fixed;shape=mxgraph.aws4.resourceIcon;resIcon=mxgraph.aws4.transit_gateway;strokeWidth=3;" vertex="1" parent="1">
                    <mxGeometry x="388" y="619" width="50" height="50" as="geometry"/>
                </mxCell>
                <mxCell id="wZymyNCZh6rcnGvRi5B4-25" style="edgeStyle=none;html=1;strokeColor=#000000;strokeWidth=1;fontSize=13;fontColor=#000000;" edge="1" parent="1" source="wZymyNCZh6rcnGvRi5B4-23">
                    <mxGeometry relative="1" as="geometry">
                        <mxPoint x="545" y="599" as="targetPoint"/>
                    </mxGeometry>
                </mxCell>
                <mxCell id="wZymyNCZh6rcnGvRi5B4-27" style="edgeStyle=none;html=1;strokeColor=#000000;strokeWidth=1;fontSize=13;fontColor=#000000;" edge="1" parent="1" source="wZymyNCZh6rcnGvRi5B4-23">
                    <mxGeometry relative="1" as="geometry">
                        <mxPoint x="545" y="699" as="targetPoint"/>
                    </mxGeometry>
                </mxCell>
                <mxCell id="wZymyNCZh6rcnGvRi5B4-23" value="VPC Peering" style="sketch=0;outlineConnect=0;fontColor=#232F3E;gradientColor=none;fillColor=#4D27AA;strokeColor=none;dashed=0;verticalLabelPosition=bottom;verticalAlign=top;align=center;html=1;fontSize=12;fontStyle=0;aspect=fixed;pointerEvents=1;shape=mxgraph.aws4.peering;strokeWidth=3;" vertex="1" parent="1">
                    <mxGeometry x="520" y="619" width="50" height="50" as="geometry"/>
                </mxCell>
            </root>
        </mxGraphModel>
    </diagram>
    <diagram id="QbmbL_SiWcH4aurQE3LG" name="lifecycle">
        <mxGraphModel dx="995" dy="916" grid="0" gridSize="10" guides="1" tooltips="1" connect="1" arrows="1" fold="1" page="1" pageScale="1" pageWidth="1169" pageHeight="827" background="#ffffff" math="0" shadow="0">
            <root>
                <mxCell id="0"/>
                <mxCell id="1" parent="0"/>
                <mxCell id="6" style="edgeStyle=orthogonalEdgeStyle;html=1;entryX=0.5;entryY=0;entryDx=0;entryDy=0;fontSize=12;fontColor=#000000;strokeColor=#B266FF;exitX=1;exitY=0.5;exitDx=0;exitDy=0;fillColor=#6a00ff;strokeWidth=3;" edge="1" parent="1" source="2" target="5">
                    <mxGeometry relative="1" as="geometry"/>
                </mxCell>
                <mxCell id="2" value="Standard" style="fillColor=none;strokeColor=#B266FF;dashed=0;verticalAlign=middle;fontStyle=0;fontColor=#000000;fontSize=17;strokeWidth=3;" vertex="1" parent="1">
                    <mxGeometry x="145" y="131" width="180" height="65" as="geometry"/>
                </mxCell>
                <mxCell id="10" style="edgeStyle=orthogonalEdgeStyle;html=1;entryX=0.25;entryY=1;entryDx=0;entryDy=0;strokeColor=#BD7000;strokeWidth=3;fontSize=12;fontColor=#000000;fillColor=#f0a30a;dashed=1;" edge="1" parent="1" source="3" target="2">
                    <mxGeometry relative="1" as="geometry"/>
                </mxCell>
                <mxCell id="3" value="Archive" style="fillColor=none;strokeColor=#BD7000;dashed=0;verticalAlign=middle;fontStyle=0;fontColor=#000000;fontSize=17;strokeWidth=3;" vertex="1" parent="1">
                    <mxGeometry x="529" y="317" width="180" height="65" as="geometry"/>
                </mxCell>
                <mxCell id="5" value="Infrequent Access(IA)" style="fillColor=none;strokeColor=#001DBC;dashed=0;verticalAlign=middle;fontStyle=0;fontColor=#000000;fontSize=17;strokeWidth=3;" vertex="1" parent="1">
                    <mxGeometry x="299" y="225" width="180" height="65" as="geometry"/>
                </mxCell>
                <mxCell id="7" style="edgeStyle=orthogonalEdgeStyle;html=1;entryX=0.811;entryY=-0.046;entryDx=0;entryDy=0;fontSize=12;fontColor=#000000;strokeColor=#B266FF;exitX=1;exitY=0.5;exitDx=0;exitDy=0;fillColor=#6a00ff;strokeWidth=3;entryPerimeter=0;" edge="1" parent="1" source="2" target="3">
                    <mxGeometry relative="1" as="geometry">
                        <mxPoint x="335" y="173.5" as="sourcePoint"/>
                        <mxPoint x="399" y="235" as="targetPoint"/>
                    </mxGeometry>
                </mxCell>
                <mxCell id="8" style="edgeStyle=orthogonalEdgeStyle;html=1;fontSize=12;fontColor=#000000;strokeColor=#001DBC;exitX=1;exitY=0.5;exitDx=0;exitDy=0;fillColor=#0050ef;strokeWidth=3;" edge="1" parent="1" source="5" target="3">
                    <mxGeometry relative="1" as="geometry">
                        <mxPoint x="335" y="173.5" as="sourcePoint"/>
                        <mxPoint x="399" y="235" as="targetPoint"/>
                    </mxGeometry>
                </mxCell>
                <mxCell id="9" style="edgeStyle=orthogonalEdgeStyle;html=1;fontSize=12;fontColor=#000000;strokeColor=#001DBC;exitX=0;exitY=0.5;exitDx=0;exitDy=0;fillColor=#0050ef;strokeWidth=3;entryX=0.5;entryY=1;entryDx=0;entryDy=0;dashed=1;" edge="1" parent="1" source="5" target="2">
                    <mxGeometry relative="1" as="geometry">
                        <mxPoint x="489" y="267.5" as="sourcePoint"/>
                        <mxPoint x="549" y="327" as="targetPoint"/>
                    </mxGeometry>
                </mxCell>
                <mxCell id="11" value="Default 30 Days" style="text;html=1;align=center;verticalAlign=middle;resizable=0;points=[];autosize=1;strokeColor=none;fillColor=none;fontSize=17;fontColor=#000000;" vertex="1" parent="1">
                    <mxGeometry x="394" y="176" width="139" height="32" as="geometry"/>
                </mxCell>
                <mxCell id="12" value="Default 90 Days" style="text;html=1;align=center;verticalAlign=middle;resizable=0;points=[];autosize=1;strokeColor=none;fillColor=none;fontSize=17;fontColor=#000000;" vertex="1" parent="1">
                    <mxGeometry x="533" y="217" width="139" height="32" as="geometry"/>
                </mxCell>
            </root>
        </mxGraphModel>
    </diagram>
    <diagram name="Copy of Page-2" id="uykZzDiW8_bZ6SpeOXKz">
        <mxGraphModel dx="846" dy="779" grid="0" gridSize="10" guides="1" tooltips="1" connect="1" arrows="1" fold="1" page="1" pageScale="1" pageWidth="1169" pageHeight="827" background="#ffffff" math="0" shadow="0">
            <root>
                <mxCell id="IKhD2_iMXHgRaTMyU-y5-0"/>
                <mxCell id="IKhD2_iMXHgRaTMyU-y5-1" parent="IKhD2_iMXHgRaTMyU-y5-0"/>
                <mxCell id="IKhD2_iMXHgRaTMyU-y5-2" value="VPC" style="points=[[0,0],[0.25,0],[0.5,0],[0.75,0],[1,0],[1,0.25],[1,0.5],[1,0.75],[1,1],[0.75,1],[0.5,1],[0.25,1],[0,1],[0,0.75],[0,0.5],[0,0.25]];outlineConnect=0;gradientColor=none;html=1;whiteSpace=wrap;fontSize=12;fontStyle=0;container=0;pointerEvents=0;collapsible=0;recursiveResize=0;shape=mxgraph.aws4.group;grIcon=mxgraph.aws4.group_vpc;strokeColor=#248814;fillColor=none;verticalAlign=top;align=left;spacingLeft=30;fontColor=#AAB7B8;dashed=0;strokeWidth=3;" vertex="1" parent="IKhD2_iMXHgRaTMyU-y5-1">
                    <mxGeometry x="273" y="35" width="473" height="400" as="geometry"/>
                </mxCell>
                <mxCell id="IKhD2_iMXHgRaTMyU-y5-5" value="EFS" style="sketch=0;points=[[0,0,0],[0.25,0,0],[0.5,0,0],[0.75,0,0],[1,0,0],[0,1,0],[0.25,1,0],[0.5,1,0],[0.75,1,0],[1,1,0],[0,0.25,0],[0,0.5,0],[0,0.75,0],[1,0.25,0],[1,0.5,0],[1,0.75,0]];outlineConnect=0;fontColor=#232F3E;gradientColor=#60A337;gradientDirection=north;fillColor=#277116;strokeColor=#ffffff;dashed=0;verticalLabelPosition=bottom;verticalAlign=top;align=center;html=1;fontSize=12;fontStyle=0;aspect=fixed;shape=mxgraph.aws4.resourceIcon;resIcon=mxgraph.aws4.elastic_file_system;strokeWidth=3;" vertex="1" parent="IKhD2_iMXHgRaTMyU-y5-1">
                    <mxGeometry x="783" y="204" width="78" height="78" as="geometry"/>
                </mxCell>
                <mxCell id="IKhD2_iMXHgRaTMyU-y5-6" value="Availability Zone" style="fillColor=none;strokeColor=#147EBA;dashed=1;verticalAlign=top;fontStyle=0;fontColor=#147EBA;strokeWidth=3;fontSize=13;" vertex="1" parent="IKhD2_iMXHgRaTMyU-y5-1">
                    <mxGeometry x="167" y="56" width="475" height="184" as="geometry"/>
                </mxCell>
                <mxCell id="IKhD2_iMXHgRaTMyU-y5-7" value="Private subnet" style="points=[[0,0],[0.25,0],[0.5,0],[0.75,0],[1,0],[1,0.25],[1,0.5],[1,0.75],[1,1],[0.75,1],[0.5,1],[0.25,1],[0,1],[0,0.75],[0,0.5],[0,0.25]];outlineConnect=0;gradientColor=none;html=1;whiteSpace=wrap;fontSize=12;fontStyle=0;container=1;pointerEvents=0;collapsible=0;recursiveResize=0;shape=mxgraph.aws4.group;grIcon=mxgraph.aws4.group_security_group;grStroke=0;strokeColor=#147EBA;fillColor=#E6F2F8;verticalAlign=top;align=left;spacingLeft=30;fontColor=#147EBA;dashed=0;strokeWidth=3;" vertex="1" parent="IKhD2_iMXHgRaTMyU-y5-1">
                    <mxGeometry x="287" y="88" width="320" height="145" as="geometry"/>
                </mxCell>
                <mxCell id="IKhD2_iMXHgRaTMyU-y5-8" value="Security group" style="fillColor=none;strokeColor=#DD3522;verticalAlign=top;fontStyle=0;fontColor=#DD3522;strokeWidth=3;fontSize=17;" vertex="1" parent="IKhD2_iMXHgRaTMyU-y5-7">
                    <mxGeometry x="176" y="35" width="124" height="93" as="geometry"/>
                </mxCell>
                <mxCell id="IKhD2_iMXHgRaTMyU-y5-9" value="マウントターゲット" style="sketch=0;outlineConnect=0;fontColor=#232F3E;gradientColor=none;fillColor=#4D27AA;strokeColor=none;dashed=0;verticalLabelPosition=bottom;verticalAlign=top;align=center;html=1;fontSize=12;fontStyle=0;aspect=fixed;pointerEvents=1;shape=mxgraph.aws4.elastic_network_interface;strokeWidth=3;" vertex="1" parent="IKhD2_iMXHgRaTMyU-y5-7">
                    <mxGeometry x="217" y="65" width="35" height="35" as="geometry"/>
                </mxCell>
                <mxCell id="IKhD2_iMXHgRaTMyU-y5-10" style="edgeStyle=orthogonalEdgeStyle;html=1;strokeColor=#000000;strokeWidth=1;fontSize=17;fontColor=#000000;" edge="1" parent="IKhD2_iMXHgRaTMyU-y5-7" source="IKhD2_iMXHgRaTMyU-y5-11" target="IKhD2_iMXHgRaTMyU-y5-9">
                    <mxGeometry relative="1" as="geometry"/>
                </mxCell>
                <mxCell id="IKhD2_iMXHgRaTMyU-y5-11" value="EC2" style="sketch=0;points=[[0,0,0],[0.25,0,0],[0.5,0,0],[0.75,0,0],[1,0,0],[0,1,0],[0.25,1,0],[0.5,1,0],[0.75,1,0],[1,1,0],[0,0.25,0],[0,0.5,0],[0,0.75,0],[1,0.25,0],[1,0.5,0],[1,0.75,0]];outlineConnect=0;fontColor=#232F3E;gradientColor=#F78E04;gradientDirection=north;fillColor=#D05C17;strokeColor=#ffffff;dashed=0;verticalLabelPosition=bottom;verticalAlign=top;align=center;html=1;fontSize=12;fontStyle=0;aspect=fixed;shape=mxgraph.aws4.resourceIcon;resIcon=mxgraph.aws4.compute;strokeWidth=3;" vertex="1" parent="IKhD2_iMXHgRaTMyU-y5-7">
                    <mxGeometry x="32" y="57.5" width="50" height="50" as="geometry"/>
                </mxCell>
                <mxCell id="IKhD2_iMXHgRaTMyU-y5-12" value="2049ポート" style="text;html=1;align=center;verticalAlign=middle;resizable=0;points=[];autosize=1;strokeColor=none;fillColor=none;fontSize=13;fontColor=#000000;" vertex="1" parent="IKhD2_iMXHgRaTMyU-y5-7">
                    <mxGeometry x="92" y="54" width="86" height="28" as="geometry"/>
                </mxCell>
                <mxCell id="IKhD2_iMXHgRaTMyU-y5-13" value="Private subnet" style="points=[[0,0],[0.25,0],[0.5,0],[0.75,0],[1,0],[1,0.25],[1,0.5],[1,0.75],[1,1],[0.75,1],[0.5,1],[0.25,1],[0,1],[0,0.75],[0,0.5],[0,0.25]];outlineConnect=0;gradientColor=none;html=1;whiteSpace=wrap;fontSize=12;fontStyle=0;container=1;pointerEvents=0;collapsible=0;recursiveResize=0;shape=mxgraph.aws4.group;grIcon=mxgraph.aws4.group_security_group;grStroke=0;strokeColor=#147EBA;fillColor=#E6F2F8;verticalAlign=top;align=left;spacingLeft=30;fontColor=#147EBA;dashed=0;strokeWidth=3;" vertex="1" parent="IKhD2_iMXHgRaTMyU-y5-1">
                    <mxGeometry x="288" y="274" width="319" height="149" as="geometry"/>
                </mxCell>
                <mxCell id="IKhD2_iMXHgRaTMyU-y5-19" value="Availability Zone" style="fillColor=none;strokeColor=#147EBA;dashed=1;verticalAlign=top;fontStyle=0;fontColor=#147EBA;strokeWidth=3;fontSize=13;" vertex="1" parent="IKhD2_iMXHgRaTMyU-y5-1">
                    <mxGeometry x="170" y="251" width="473" height="177" as="geometry"/>
                </mxCell>
                <mxCell id="dPqxewiPKkk5R7imdFKx-2" style="edgeStyle=orthogonalEdgeStyle;html=1;strokeColor=#000000;strokeWidth=1;fontSize=17;fontColor=#000000;" edge="1" parent="IKhD2_iMXHgRaTMyU-y5-1" source="dPqxewiPKkk5R7imdFKx-3" target="IKhD2_iMXHgRaTMyU-y5-9">
                    <mxGeometry relative="1" as="geometry">
                        <mxPoint x="509.5003977001568" y="363.5" as="targetPoint"/>
                    </mxGeometry>
                </mxCell>
                <mxCell id="dPqxewiPKkk5R7imdFKx-3" value="EC2" style="sketch=0;points=[[0,0,0],[0.25,0,0],[0.5,0,0],[0.75,0,0],[1,0,0],[0,1,0],[0.25,1,0],[0.5,1,0],[0.75,1,0],[1,1,0],[0,0.25,0],[0,0.5,0],[0,0.75,0],[1,0.25,0],[1,0.5,0],[1,0.75,0]];outlineConnect=0;fontColor=#232F3E;gradientColor=#F78E04;gradientDirection=north;fillColor=#D05C17;strokeColor=#ffffff;dashed=0;verticalLabelPosition=bottom;verticalAlign=top;align=center;html=1;fontSize=12;fontStyle=0;aspect=fixed;shape=mxgraph.aws4.resourceIcon;resIcon=mxgraph.aws4.compute;strokeWidth=3;" vertex="1" parent="IKhD2_iMXHgRaTMyU-y5-1">
                    <mxGeometry x="319" y="338" width="50" height="50" as="geometry"/>
                </mxCell>
                <mxCell id="dPqxewiPKkk5R7imdFKx-4" value="2049ポート" style="text;html=1;align=center;verticalAlign=middle;resizable=0;points=[];autosize=1;strokeColor=none;fillColor=none;fontSize=13;fontColor=#000000;" vertex="1" parent="IKhD2_iMXHgRaTMyU-y5-1">
                    <mxGeometry x="379" y="334.5" width="86" height="28" as="geometry"/>
                </mxCell>
                <mxCell id="IKhD2_iMXHgRaTMyU-y5-3" style="edgeStyle=orthogonalEdgeStyle;html=1;strokeColor=#000000;strokeWidth=1;fontSize=17;fontColor=#000000;" edge="1" parent="IKhD2_iMXHgRaTMyU-y5-1" source="IKhD2_iMXHgRaTMyU-y5-5" target="IKhD2_iMXHgRaTMyU-y5-9">
                    <mxGeometry relative="1" as="geometry">
                        <Array as="points">
                            <mxPoint x="676" y="243"/>
                            <mxPoint x="676" y="171"/>
                        </Array>
                    </mxGeometry>
                </mxCell>
            </root>
        </mxGraphModel>
    </diagram>
</mxfile>